# xmcd
#
# Track frame offsets: 
#        150
#        34607
#        68586
#        98435
#        122390
#        149799
#        184898
#        203471
#        233164
#        267213
#        294363
#        328160
#
# Disc length: 4771 seconds
#
# Revision: 0
# Processed by: cddbd v1.5.2PL0 Copyright (c) Steve Scherf et al.
# Submitted via: ExactAudioCopy v0.95b3
#
DISCID=a512a10c
DTITLE=Ken Laszlo - Maxi (The 12'' Collection Of The 80's) [RA000531]
DYEAR=2012
DGENRE=Italo-Disco
TTITLE0=Hey Hey Guy (Vocal Version)
TTITLE1=Tonight (Re-remix)
TTITLE2=Don't Cry (Swedish Remix)
TTITLE3=1.2.3.4.5.6.7.8. (Extended Version)
TTITLE4=Glasses Man (Extended Version)
TTITLE5=Hey Hey Guy (Swedish Mega-Mix)
TTITLE6=Black Pearl (Album Version)
TTITLE7=Tonight (Swedish Remix)
TTITLE8=Don't Cry (The Marquee Remix)
TTITLE9=1.2.3.4.5.6.7.8. (Extended Vocal Remix) (Swedish Remix)
TTITLE10=Hey Hey Guy (First Original Version)
TTITLE11=Dancing Together (Vocal Version)
EXTD=
EXTT0=
EXTT1=
EXTT2=
EXTT3=
EXTT4=
EXTT5=
EXTT6=
EXTT7=
EXTT8=
EXTT9=
EXTT10=
EXTT11=
PLAYORDER=
